<?xml version="1.0" encoding="UTF-8"?>
<svg xmlns="http://www.w3.org/2000/svg" xmlns:xlink="http://www.w3.org/1999/xlink" width="375pt" height="374.999991pt" viewBox="0 0 375 374.999991" version="1.2">
<defs>
<clipPath id="clip1">
  <path d="M 214 139 L 357.878906 139 L 357.878906 337.285156 L 214 337.285156 Z M 214 139 "/>
</clipPath>
<clipPath id="clip2">
  <path d="M 27.128906 29.035156 L 204 29.035156 L 204 337.285156 L 27.128906 337.285156 Z M 27.128906 29.035156 "/>
</clipPath>
</defs>
<g id="surface1">
<path style=" stroke:none;fill-rule:nonzero;fill:rgb(48.629761%,72.158813%,92.158508%);fill-opacity:1;" d="M 198.039062 332.75 L 32.640625 332.75 L 32.640625 244.367188 L 198.039062 244.367188 L 198.039062 332.75 "/>
<path style=" stroke:none;fill-rule:nonzero;fill:rgb(80.389404%,93.328857%,96.469116%);fill-opacity:1;" d="M 198.039062 244.367188 L 32.640625 244.367188 L 32.640625 155.984375 L 198.039062 155.984375 L 198.039062 244.367188 "/>
<path style=" stroke:none;fill-rule:nonzero;fill:rgb(48.629761%,72.158813%,92.158508%);fill-opacity:1;" d="M 198.039062 155.984375 L 32.640625 155.984375 L 32.640625 67.601562 L 198.039062 67.601562 L 198.039062 155.984375 "/>
<path style=" stroke:none;fill-rule:nonzero;fill:rgb(80.389404%,93.328857%,96.469116%);fill-opacity:1;" d="M 319.332031 332.75 L 220.09375 332.75 L 220.09375 144.9375 L 319.332031 144.9375 L 319.332031 332.75 "/>
<path style=" stroke:none;fill-rule:nonzero;fill:rgb(100%,100%,100%);fill-opacity:1;" d="M 319.332031 266.460938 L 352.410156 266.460938 L 352.410156 321.699219 L 319.332031 321.699219 L 319.332031 266.460938 "/>
<path style=" stroke:none;fill-rule:nonzero;fill:rgb(100%,100%,100%);fill-opacity:1;" d="M 352.410156 211.222656 L 319.332031 211.222656 L 319.332031 155.984375 L 352.410156 155.984375 L 352.410156 211.222656 "/>
<path style=" stroke:none;fill-rule:nonzero;fill:rgb(100%,100%,100%);fill-opacity:1;" d="M 87.773438 67.601562 L 43.667969 67.601562 L 43.667969 34.460938 L 87.773438 34.460938 L 87.773438 67.601562 "/>
<path style=" stroke:none;fill-rule:nonzero;fill:rgb(100%,100%,100%);fill-opacity:1;" d="M 187.011719 67.601562 L 142.90625 67.601562 L 142.90625 34.460938 L 187.011719 34.460938 L 187.011719 67.601562 "/>
<path style=" stroke:none;fill-rule:nonzero;fill:rgb(30.979919%,51.368713%,81.959534%);fill-opacity:1;" d="M 93.285156 95.222656 L 49.179688 95.222656 L 49.179688 84.175781 L 93.285156 84.175781 L 93.285156 95.222656 "/>
<path style=" stroke:none;fill-rule:nonzero;fill:rgb(30.979919%,51.368713%,81.959534%);fill-opacity:1;" d="M 115.339844 95.222656 L 104.3125 95.222656 L 104.3125 84.175781 L 115.339844 84.175781 L 115.339844 95.222656 "/>
<path style=" stroke:none;fill-rule:nonzero;fill:rgb(30.979919%,51.368713%,81.959534%);fill-opacity:1;" d="M 93.285156 183.605469 L 49.179688 183.605469 L 49.179688 172.554688 L 93.285156 172.554688 L 93.285156 183.605469 "/>
<path style=" stroke:none;fill-rule:nonzero;fill:rgb(30.979919%,51.368713%,81.959534%);fill-opacity:1;" d="M 115.339844 183.605469 L 104.3125 183.605469 L 104.3125 172.554688 L 115.339844 172.554688 L 115.339844 183.605469 "/>
<path style=" stroke:none;fill-rule:nonzero;fill:rgb(30.979919%,51.368713%,81.959534%);fill-opacity:1;" d="M 93.285156 271.984375 L 49.179688 271.984375 L 49.179688 260.9375 L 93.285156 260.9375 L 93.285156 271.984375 "/>
<path style=" stroke:none;fill-rule:nonzero;fill:rgb(30.979919%,51.368713%,81.959534%);fill-opacity:1;" d="M 115.339844 271.984375 L 104.3125 271.984375 L 104.3125 260.9375 L 115.339844 260.9375 L 115.339844 271.984375 "/>
<path style=" stroke:none;fill-rule:nonzero;fill:rgb(30.979919%,51.368713%,81.959534%);fill-opacity:1;" d="M 302.792969 216.746094 L 291.765625 216.746094 L 291.765625 161.507812 L 302.792969 161.507812 L 302.792969 216.746094 "/>
<path style=" stroke:none;fill-rule:nonzero;fill:rgb(30.979919%,51.368713%,81.959534%);fill-opacity:1;" d="M 302.792969 238.84375 L 291.765625 238.84375 L 291.765625 227.792969 L 302.792969 227.792969 L 302.792969 238.84375 "/>
<g clip-path="url(#clip1)" clip-rule="nonzero">
<path style=" stroke:none;fill-rule:nonzero;fill:rgb(30.979919%,51.368713%,81.959534%);fill-opacity:1;" d="M 346.898438 161.507812 L 346.898438 205.699219 L 324.84375 205.699219 L 324.84375 161.507812 Z M 313.816406 327.222656 L 225.605469 327.222656 L 225.605469 150.460938 L 313.816406 150.460938 Z M 346.898438 271.984375 L 346.898438 316.175781 L 324.84375 316.175781 L 324.84375 271.984375 Z M 324.84375 139.414062 L 214.578125 139.414062 L 214.578125 338.273438 L 324.84375 338.273438 L 324.84375 327.222656 L 357.925781 327.222656 L 357.925781 260.9375 L 324.84375 260.9375 L 324.84375 216.746094 L 357.925781 216.746094 L 357.925781 150.460938 L 324.84375 150.460938 L 324.84375 139.414062 "/>
</g>
<path style=" stroke:none;fill-rule:nonzero;fill:rgb(30.979919%,51.368713%,81.959534%);fill-opacity:1;" d="M 49.179688 95.222656 L 93.285156 95.222656 L 93.285156 84.175781 L 49.179688 84.175781 L 49.179688 95.222656 "/>
<path style=" stroke:none;fill-rule:nonzero;fill:rgb(30.979919%,51.368713%,81.959534%);fill-opacity:1;" d="M 104.3125 95.222656 L 115.339844 95.222656 L 115.339844 84.175781 L 104.3125 84.175781 L 104.3125 95.222656 "/>
<path style=" stroke:none;fill-rule:nonzero;fill:rgb(30.979919%,51.368713%,81.959534%);fill-opacity:1;" d="M 49.179688 183.605469 L 93.285156 183.605469 L 93.285156 172.554688 L 49.179688 172.554688 L 49.179688 183.605469 "/>
<path style=" stroke:none;fill-rule:nonzero;fill:rgb(30.979919%,51.368713%,81.959534%);fill-opacity:1;" d="M 104.3125 183.605469 L 115.339844 183.605469 L 115.339844 172.554688 L 104.3125 172.554688 L 104.3125 183.605469 "/>
<g clip-path="url(#clip2)" clip-rule="nonzero">
<path style=" stroke:none;fill-rule:nonzero;fill:rgb(30.979919%,51.368713%,81.959534%);fill-opacity:1;" d="M 192.527344 327.222656 L 38.152344 327.222656 L 38.152344 249.890625 L 192.527344 249.890625 Z M 38.152344 161.507812 L 192.527344 161.507812 L 192.527344 238.84375 L 38.152344 238.84375 Z M 38.152344 73.125 L 192.527344 73.125 L 192.527344 150.460938 L 38.152344 150.460938 Z M 49.179688 39.984375 L 82.261719 39.984375 L 82.261719 62.078125 L 49.179688 62.078125 Z M 148.417969 39.984375 L 181.5 39.984375 L 181.5 62.078125 L 148.417969 62.078125 Z M 203.550781 62.078125 L 192.527344 62.078125 L 192.527344 28.9375 L 137.394531 28.9375 L 137.394531 62.078125 L 93.285156 62.078125 L 93.285156 28.9375 L 38.152344 28.9375 L 38.152344 62.078125 L 27.128906 62.078125 L 27.128906 338.273438 L 203.550781 338.273438 L 203.550781 62.078125 "/>
</g>
<path style=" stroke:none;fill-rule:nonzero;fill:rgb(30.979919%,51.368713%,81.959534%);fill-opacity:1;" d="M 93.285156 260.9375 L 49.179688 260.9375 L 49.179688 271.984375 L 93.285156 271.984375 L 93.285156 260.9375 "/>
<path style=" stroke:none;fill-rule:nonzero;fill:rgb(30.979919%,51.368713%,81.959534%);fill-opacity:1;" d="M 115.339844 260.9375 L 104.3125 260.9375 L 104.3125 271.984375 L 115.339844 271.984375 L 115.339844 260.9375 "/>
<path style=" stroke:none;fill-rule:nonzero;fill:rgb(30.979919%,51.368713%,81.959534%);fill-opacity:1;" d="M 291.765625 216.746094 L 302.792969 216.746094 L 302.792969 161.507812 L 291.765625 161.507812 L 291.765625 216.746094 "/>
<path style=" stroke:none;fill-rule:nonzero;fill:rgb(30.979919%,51.368713%,81.959534%);fill-opacity:1;" d="M 291.765625 238.84375 L 302.792969 238.84375 L 302.792969 227.792969 L 291.765625 227.792969 L 291.765625 238.84375 "/>
</g>
</svg>
