<?xml version="1.0" standalone="no"?>
<!DOCTYPE svg PUBLIC "-//W3C//DTD SVG 20010904//EN"
 "http://www.w3.org/TR/2001/REC-SVG-20010904/DTD/svg10.dtd">
<svg version="1.0" xmlns="http://www.w3.org/2000/svg"
 width="676.000000pt" height="676.000000pt" viewBox="0 0 676.000000 676.000000"
 preserveAspectRatio="xMidYMid meet">
<metadata>
Created by potrace 1.11, written by Peter Selinger 2001-2013
</metadata>
<g transform="translate(0.000000,676.000000) scale(0.100000,-0.100000)"
fill="#000000" stroke="none">
<path d="M3187 6755 c-1 -2 -44 -6 -94 -9 -51 -4 -103 -9 -115 -11 -13 -2 -44
-6 -69 -9 -276 -38 -598 -128 -864 -241 -96 -41 -292 -139 -365 -183 -60 -37
-236 -150 -255 -164 -5 -4 -55 -42 -110 -85 -55 -42 -102 -79 -105 -82 -3 -3
-23 -21 -45 -40 -99 -84 -293 -281 -372 -378 -21 -26 -45 -55 -53 -64 -8 -10
-20 -24 -25 -31 -6 -7 -24 -31 -41 -53 -61 -78 -157 -225 -237 -360 -39 -67
-167 -336 -201 -423 -60 -155 -130 -378 -151 -484 -3 -16 -7 -40 -10 -55 -3
-16 -8 -35 -10 -43 -5 -17 -16 -81 -30 -180 -3 -25 -8 -61 -11 -80 -13 -92
-18 -204 -18 -410 0 -220 5 -304 25 -445 6 -38 13 -86 16 -105 3 -19 9 -55 14
-80 5 -25 12 -58 15 -75 10 -55 65 -259 90 -332 14 -40 27 -81 29 -90 13 -65
192 -449 267 -573 204 -338 476 -659 748 -880 30 -25 57 -47 60 -51 3 -3 41
-33 85 -66 308 -231 671 -416 1036 -526 82 -25 220 -61 269 -71 14 -2 50 -10
80 -16 30 -6 69 -12 85 -15 17 -2 46 -6 65 -9 145 -23 255 -30 475 -31 227 0
347 7 485 28 19 3 58 9 85 13 28 3 59 9 70 11 11 3 40 9 65 14 66 14 81 17
125 29 22 6 53 13 68 16 105 20 397 130 587 221 110 53 373 202 415 236 6 4
48 35 95 69 47 33 87 64 90 67 3 3 21 18 40 32 19 15 46 37 60 49 310 271 505
496 701 810 84 133 199 356 252 485 64 158 161 468 181 581 2 11 7 37 11 59 4
22 9 49 11 60 2 11 6 34 9 50 3 17 8 50 11 75 3 25 7 56 9 70 18 105 25 484
13 650 -10 119 -18 200 -24 235 -3 17 -7 44 -10 60 -2 17 -6 41 -9 55 -2 14
-7 39 -10 55 -52 280 -169 617 -307 883 -63 121 -162 289 -212 360 -68 95
-174 233 -220 288 -63 74 -302 314 -379 379 -32 28 -64 55 -70 60 -7 6 -37 29
-67 52 -30 23 -63 49 -72 57 -10 9 -20 16 -23 16 -6 0 -65 40 -75 50 -9 9 -65
46 -80 53 -8 4 -28 16 -45 27 -30 19 -136 79 -230 130 -210 115 -626 259 -875
304 -19 3 -46 9 -60 12 -14 3 -32 6 -40 6 -8 0 -36 4 -62 9 -48 8 -87 13 -208
25 -60 6 -477 13 -483 9z"/>
</g>
</svg>
